<svg xmlns="http://www.w3.org/2000/svg" xmlns:xlink="http://www.w3.org/1999/xlink" width="1080" zoomAndPan="magnify" viewBox="0 0 810 1012.49997" height="1350" preserveAspectRatio="xMidYMid meet" version="1.0"><defs><clipPath id="55274b47a8"><path d="M 0.199219 0 L 809.800781 0 L 809.800781 1012 L 0.199219 1012 Z M 0.199219 0 " clip-rule="nonzero"/></clipPath></defs><g clip-path="url(#55274b47a8)"><path fill="#ffffff" d="M 0.199219 0 L 809.800781 0 L 809.800781 1012 L 0.199219 1012 Z M 0.199219 0 " fill-opacity="1" fill-rule="nonzero"/><path fill="#ffffff" d="M 0.199219 0 L 809.800781 0 L 809.800781 1012 L 0.199219 1012 Z M 0.199219 0 " fill-opacity="1" fill-rule="nonzero"/></g><path fill="#322370" d="M 349.324219 192.570312 C 364.007812 193.324219 375.210938 197.140625 388.320312 203.582031 L 393.703125 206.195312 C 433 225.679688 465.5625 256.695312 490.105469 292.878906 C 517.386719 335.75 532.886719 381.226562 535.511719 432.03125 C 536.023438 459.03125 534.203125 489.003906 523.167969 514.058594 C 517.511719 521.5 517.511719 521.5 511.261719 525.964844 C 504.167969 526.777344 499.933594 526.203125 493.316406 523.441406 L 487.300781 520.160156 C 471.488281 511.609375 458.925781 510.976562 440.953125 511.183594 C 427.90625 511.957031 419.480469 514.960938 408.664062 522.085938 C 396.65625 531.375 390.699219 541.5 384.832031 555.375 C 380.609375 567.671875 379.039062 579.671875 380.285156 592.644531 C 383.476562 608.464844 388.957031 623.003906 399.335938 635.507812 C 408.707031 644.378906 419.425781 651.773438 431.753906 655.8125 C 449.269531 659.285156 467.300781 658.855469 484.324219 653.367188 C 500.976562 646.351562 516.175781 636.597656 527.929688 622.753906 C 533.761719 614.566406 538.925781 606.054688 544.136719 597.460938 L 548.46875 590.410156 L 552.285156 583.945312 C 557.078125 577.597656 561.257812 574.609375 568.414062 571.210938 C 575.855469 571.359375 575.855469 571.359375 582.703125 573.589844 C 586.628906 577.574219 586.628906 577.574219 589.847656 583.117188 C 593.753906 606.925781 587.859375 629.871094 579.8125 652.140625 C 567.859375 682.734375 547.683594 709.09375 523.167969 730.761719 C 496.375 752.152344 464.191406 767.722656 430.292969 773.628906 C 396.058594 775.871094 362.839844 775.46875 330.273438 764.101562 L 322.796875 761.65625 C 291.851562 750.273438 264.773438 728.160156 243.011719 703.703125 C 233.445312 692.164062 225.792969 679.433594 218.347656 666.464844 L 214.722656 660.152344 C 194.671875 622.660156 190.652344 582.1875 191.402344 540.410156 C 192.832031 502.25 205.160156 465.339844 223.894531 432.214844 C 230.714844 421.46875 238.730469 411.84375 246.925781 402.132812 L 252.433594 394.839844 C 262.257812 384.097656 273.667969 375.46875 285.027344 366.410156 C 291.855469 360.742188 298.675781 355.066406 305.484375 349.378906 C 310.46875 345.558594 315.035156 342.75 320.75 340.214844 L 320.75 335.453125 L 325.511719 335.453125 L 327.457031 331.238281 C 330.273438 325.925781 333.453125 321.777344 337.269531 317.148438 C 344.835938 307.097656 349.351562 297.832031 351.707031 285.441406 C 354.113281 261.949219 349.132812 239.507812 342.695312 216.988281 C 341.140625 211.324219 341.140625 211.324219 339.800781 202.09375 L 343.074219 195.84375 Z M 349.324219 192.570312 " fill-opacity="1" fill-rule="nonzero"/><path fill="#7455de" d="M 396.953125 256.867188 C 426.144531 274.210938 447.1875 298.171875 463.875 327.46875 C 472.535156 343.046875 480.894531 358.507812 485.066406 375.9375 L 487.054688 383.777344 C 493.25 411.652344 494.296875 440.332031 492.210938 468.808594 L 489.828125 475.953125 L 482.050781 473.636719 C 458.601562 467.816406 427.691406 466.871094 404.292969 473.273438 C 397.546875 475.898438 391.128906 479.175781 385.046875 483.097656 L 379.1875 486.679688 C 364.441406 496.847656 354.859375 510.019531 346.945312 525.964844 C 338.535156 544.679688 335.792969 561.179688 336.082031 581.628906 L 336.152344 589.550781 C 336.671875 609.386719 338.984375 625.339844 349.324219 642.652344 C 360.519531 660.34375 375.519531 675.949219 393.5 686.804688 C 413.160156 697.003906 430.632812 700.589844 452.617188 700.402344 L 459.074219 700.457031 C 473.183594 700.414062 485.683594 698.550781 499.355469 695.042969 C 487.273438 708.730469 472.757812 717.890625 455.625 724.175781 C 448.003906 726.558594 440.40625 728.785156 432.675781 730.761719 L 427.289062 732.160156 C 401.332031 736.082031 371.753906 736.054688 347.046875 726.914062 C 316.328125 712.949219 290.945312 695.386719 270.144531 668.25 C 251.132812 640.476562 237.285156 610.496094 234.488281 576.695312 C 232.546875 540.875 235.359375 506.40625 251.417969 473.730469 L 254.070312 468.808594 L 257.09375 463.070312 C 266.019531 447.160156 277.183594 434.285156 289.792969 421.183594 L 295.289062 415.3125 C 306.261719 403.90625 317.746094 393.878906 330.273438 384.269531 C 355.613281 364.742188 374.949219 345.648438 387.324219 315.640625 C 393.808594 296.796875 395.011719 276.585938 396.953125 256.867188 " fill-opacity="1" fill-rule="nonzero"/><path fill="#322370" d="M 344.5625 216.382812 C 350.199219 222.019531 351.113281 225.550781 353.195312 233.203125 C 358.007812 253.5625 359.832031 276.839844 354.683594 297.300781 C 352.925781 302.09375 351.140625 306.871094 349.324219 311.636719 L 354.089844 318.78125 L 356.46875 314.019531 L 358.851562 309.257812 C 359.691406 306.09375 360.488281 302.917969 361.234375 299.730469 L 373.140625 309.257812 L 375.519531 306.875 L 370.757812 304.496094 L 373.140625 299.730469 L 389.808594 302.113281 L 389.808594 285.441406 L 380.285156 297.351562 C 378.945312 293.035156 378.945312 293.035156 377.902344 287.824219 L 380.285156 280.679688 L 389.808594 283.0625 L 392.191406 256.867188 L 396.953125 261.628906 C 397.917969 286.746094 392.828125 309.363281 382.164062 332.066406 C 368.964844 356.324219 346.238281 377.726562 323.128906 392.605469 L 318.367188 392.605469 L 313.605469 385.460938 L 306.460938 385.460938 L 304.078125 373.554688 L 313.605469 373.554688 L 313.605469 364.027344 L 318.367188 366.410156 L 320.75 371.171875 L 327.894531 368.792969 L 327.152344 363.433594 L 327.894531 356.886719 C 333.847656 351.378906 333.847656 351.378906 339.800781 347.359375 L 339.800781 352.121094 L 349.324219 349.742188 L 349.324219 354.503906 L 343.671875 356.289062 L 337.417969 359.265625 C 334.21875 364.070312 334.21875 364.070312 332.65625 368.792969 L 337.417969 368.792969 L 339.800781 364.027344 L 349.324219 364.027344 C 353.613281 361.332031 353.613281 361.332031 357.214844 357.480469 L 361.058594 353.796875 L 363.613281 349.742188 C 363.019531 344.570312 363.019531 344.570312 361.234375 340.214844 L 355.726562 342.597656 C 349.324219 344.976562 349.324219 344.976562 342.183594 344.976562 L 338.015625 343.488281 C 332.109375 342.203125 332.109375 342.203125 324.023438 344.085938 L 315.988281 347.359375 C 312.371094 353.304688 312.371094 353.304688 311.222656 359.265625 L 294.554688 361.648438 L 306.460938 349.742188 L 311.671875 344.234375 L 315.988281 340.214844 L 320.75 340.214844 L 320.75 335.453125 L 325.511719 335.453125 L 327.457031 331.238281 C 330.273438 325.925781 333.453125 321.777344 337.269531 317.148438 C 344.835938 307.097656 349.351562 297.832031 351.707031 285.441406 C 353.660156 266.390625 350.582031 249.027344 346.125 230.515625 C 344.5625 223.527344 344.5625 223.527344 344.5625 216.382812 M 406.480469 645.035156 L 411.242188 646.96875 L 418.386719 649.796875 L 426.574219 653.664062 C 440.867188 658.925781 455.796875 658.519531 470.777344 656.941406 C 478.007812 654.867188 485.066406 652.308594 491.949219 649.265625 L 496.972656 647.414062 L 501.734375 649.796875 L 496.972656 656.941406 L 489.828125 659.320312 L 499.355469 661.703125 L 496.972656 668.847656 L 489.828125 666.464844 L 494.589844 666.464844 L 494.589844 661.703125 C 489.886719 662.53125 489.886719 662.53125 485.066406 664.085938 L 482.683594 668.847656 L 485.066406 659.320312 L 475.539062 668.847656 L 468.394531 664.085938 C 462.957031 663.496094 457.488281 663.125 452.023438 662.894531 C 441.285156 662.4375 432.917969 661.546875 423.148438 656.941406 L 423.148438 661.703125 L 427.910156 664.085938 C 430.742188 669.144531 430.742188 669.144531 432.675781 675.992188 C 431.78125 685.070312 431.78125 685.070312 430.292969 692.660156 L 425.53125 692.660156 L 425.53125 697.425781 L 477.921875 697.425781 L 477.921875 690.28125 L 484.171875 691.621094 C 492.332031 692.679688 498.5 691.996094 506.496094 690.28125 L 505.308594 684.476562 C 504.117188 678.371094 504.117188 678.371094 504.117188 675.992188 L 523.167969 675.992188 C 523.167969 683.535156 521.671875 686.125 518.40625 692.660156 L 525.550781 690.28125 L 527.929688 697.425781 L 535.074219 697.425781 L 537.457031 702.1875 L 549.363281 699.804688 C 542.832031 715.167969 528.433594 726.359375 515.875 736.867188 L 511.261719 740.289062 L 506.496094 737.90625 L 506.496094 733.144531 L 489.828125 728.382812 L 493.847656 727.9375 C 500.015625 726.226562 500.015625 726.226562 505.308594 719.898438 L 511.261719 714.09375 L 525.550781 714.09375 L 523.167969 709.480469 C 520.785156 704.566406 520.785156 704.566406 520.785156 702.1875 L 516.023438 702.1875 L 513.640625 695.042969 L 508.878906 697.425781 L 504.117188 695.042969 L 504.117188 699.804688 C 499.140625 703.472656 494.03125 706.945312 488.789062 710.222656 L 484.1875 713.128906 C 460.105469 728.109375 460.105469 728.109375 449.34375 730.761719 C 444.003906 729.777344 444.003906 729.777344 439.820312 728.382812 L 445.148438 726.363281 C 463.035156 719.292969 478.722656 710.644531 494.589844 699.804688 C 487.820312 699.511719 487.820312 699.511719 482.917969 700.960938 C 463.304688 705.773438 438.511719 704.1875 418.851562 700.472656 C 404.960938 696.09375 393.914062 689.957031 382.664062 680.753906 L 389.808594 675.992188 L 380.285156 671.230469 L 380.285156 666.464844 L 394.574219 666.464844 L 396.953125 661.703125 L 401.714844 661.703125 L 401.714844 675.992188 L 406.480469 666.464844 L 411.242188 675.992188 L 418.386719 668.847656 L 423.148438 671.230469 L 420.769531 654.558594 L 411.242188 656.941406 Z M 225.492188 583.117188 L 223.113281 595.023438 L 230.257812 595.023438 L 228.917969 599.191406 C 227.78125 605.042969 228.453125 608.464844 230.257812 614.074219 L 235.019531 614.074219 L 232.636719 595.023438 C 237.972656 603.027344 240.785156 611.191406 243.949219 620.179688 C 249.09375 634.476562 255.027344 647.09375 263.585938 659.75 L 265.976562 664.085938 L 263.597656 668.847656 L 258.386719 667.210938 L 251.6875 666.464844 C 245.0625 669.644531 245.0625 669.644531 239.78125 673.609375 L 235.019531 664.085938 L 228.324219 664.53125 L 220.730469 664.085938 C 215.171875 660.375 213.300781 656.421875 210.078125 650.53125 C 203.226562 635.683594 199.183594 618.785156 199.382812 602.378906 C 199.929688 597.515625 200.769531 592.6875 201.679688 587.878906 L 211.207031 585.5 L 211.207031 590.261719 L 213.585938 585.5 C 220.730469 583.117188 220.730469 583.117188 225.492188 583.117188 M 468.394531 268.773438 C 490.914062 285.460938 504.242188 315.128906 516.023438 340.214844 C 518.367188 347.511719 519.71875 354.042969 520.785156 361.648438 L 518.40625 356.886719 L 499.355469 364.027344 L 496.972656 354.503906 L 504.117188 356.886719 L 508.878906 354.503906 L 506.496094 349.742188 L 513.640625 349.742188 L 506.496094 333.070312 L 496.972656 333.070312 L 494.589844 340.214844 L 482.683594 335.453125 L 485.066406 328.308594 L 492.210938 325.925781 L 485.363281 325.332031 L 477.921875 323.546875 C 474.648438 318.636719 474.648438 318.636719 473.160156 314.019531 C 469.929688 320.25 469.929688 320.25 468.394531 328.308594 C 470.722656 334.722656 473.039062 339.972656 476.285156 345.871094 C 483.105469 358.542969 486.339844 368.636719 487.445312 383.082031 C 482.742188 376.027344 480.429688 370.050781 477.625 362.09375 C 469.964844 341.800781 460.054688 321.953125 446.378906 305.011719 L 442.199219 299.730469 L 442.199219 294.96875 L 446.964844 294.96875 C 450.035156 298.613281 450.035156 298.613281 453.214844 303.304688 L 456.433594 307.992188 L 458.871094 311.636719 L 461.25 304.496094 L 466.015625 304.496094 L 466.015625 299.730469 L 454.105469 297.351562 L 454.105469 290.207031 L 444.582031 287.824219 C 449.46875 282.472656 451.742188 280.675781 458.871094 278.300781 L 461.25 273.535156 L 468.394531 273.535156 Z M 520.785156 361.648438 C 531.078125 377.085938 533.144531 399.492188 534.777344 417.878906 C 536.433594 449.488281 536.167969 484.542969 523.167969 514.058594 C 517.511719 521.5 517.511719 521.5 511.261719 525.964844 C 504.167969 526.777344 499.933594 526.203125 493.316406 523.441406 L 487.300781 520.160156 C 474.023438 512.980469 463.863281 511.316406 448.75 510.335938 L 439.632812 509.730469 L 432.675781 509.292969 L 432.675781 506.914062 C 440.261719 506.371094 447.855469 505.890625 455.449219 505.425781 L 461.90625 504.960938 C 474.808594 504.203125 484.785156 504.914062 496.972656 509.292969 L 499.355469 518.820312 L 516.023438 516.4375 L 516.023438 499.769531 L 523.167969 497.386719 C 527.121094 477.460938 528.609375 458.4375 528.378906 438.148438 L 528.375 430.296875 C 528.304688 418.292969 528.117188 406.773438 525.550781 394.988281 L 525.847656 404.066406 C 526.011719 409.171875 526.011719 409.171875 525.550781 414.039062 L 520.785156 421.183594 L 513.640625 421.183594 C 518.125 423.820312 518.125 423.820312 523.167969 425.945312 L 527.929688 423.5625 L 525.550781 430.707031 L 513.640625 433.089844 L 511.261719 440.234375 L 499.355469 440.234375 L 494.589844 475.953125 L 492.210938 475.953125 L 492.027344 470.460938 C 491.753906 462.222656 491.460938 453.980469 491.167969 445.742188 L 490.882812 437.09375 L 490.582031 428.746094 L 490.320312 421.074219 C 489.863281 414.546875 488.761719 408.523438 487.445312 402.132812 C 487.347656 396.574219 487.347656 391.019531 487.445312 385.460938 L 496.972656 380.699219 L 496.972656 385.460938 L 506.496094 387.84375 L 501.734375 390.222656 L 499.355469 397.367188 L 494.589844 394.988281 L 492.210938 402.132812 L 496.972656 404.511719 L 496.972656 428.328125 L 504.117188 425.945312 L 506.496094 404.511719 L 513.640625 402.132812 L 516.023438 397.367188 L 513.640625 390.222656 L 511.261719 383.082031 L 516.023438 378.316406 L 520.785156 371.171875 Z M 520.785156 361.648438 " fill-opacity="1" fill-rule="nonzero"/><path fill="#322370" d="M 356.46875 337.832031 L 363.613281 340.214844 C 365.800781 344.496094 365.800781 344.496094 365.996094 349.742188 C 362.394531 354.835938 362.394531 354.835938 357.214844 359.863281 L 352.125 364.957031 L 346.945312 368.792969 L 332.65625 368.792969 L 335.039062 356.886719 L 349.324219 354.503906 L 349.324219 349.742188 L 344.859375 350.929688 C 339.800781 352.121094 339.800781 352.121094 335.039062 352.121094 L 327.894531 368.792969 L 323.128906 368.792969 L 320.75 373.554688 L 313.605469 366.410156 L 311.222656 371.171875 L 315.988281 373.554688 L 311.222656 380.699219 L 306.460938 375.9375 L 306.460938 385.460938 L 315.988281 383.082031 L 320.75 394.988281 L 315.242188 396.921875 C 309.140625 399.617188 305.992188 401.925781 301.699219 406.894531 L 296.933594 404.511719 L 296.933594 397.367188 C 290.695312 397.367188 286.195312 398.113281 280.265625 399.75 L 277.882812 392.605469 L 282.648438 385.460938 L 273.121094 387.84375 L 273.121094 380.699219 C 277.644531 373.21875 282.996094 367.140625 289.792969 361.648438 C 297.035156 359.472656 303.6875 358.992188 311.222656 359.265625 L 312.117188 353.609375 L 313.605469 347.359375 L 318.367188 342.597656 C 325.003906 341.3125 330.738281 340.28125 337.417969 340.214844 C 343.371094 342.449219 343.371094 342.449219 346.945312 344.976562 L 351.261719 341.257812 Z M 568.414062 571.210938 C 575.558594 571.957031 575.558594 571.957031 582.703125 573.589844 L 587.464844 578.355469 C 590.832031 603.183594 585.1875 629.007812 576.085938 652.121094 C 572.277344 661.042969 568.082031 669.746094 563.652344 678.371094 C 561.140625 674.167969 561.140625 674.167969 558.886719 668.847656 C 560.972656 659.917969 560.972656 659.917969 563.652344 652.175781 L 573.175781 652.175781 L 577.941406 630.746094 L 573.175781 630.746094 L 570.796875 637.890625 L 563.652344 637.890625 L 563.652344 642.652344 L 558.886719 642.652344 L 558.886719 647.414062 L 563.652344 649.796875 L 558.886719 656.941406 C 551.445312 658.578125 551.445312 658.578125 544.601562 659.320312 L 546.980469 652.773438 C 549.828125 644.867188 549.828125 644.867188 549.363281 635.507812 C 549.363281 626.710938 552.414062 621.746094 556.507812 614.074219 L 561.269531 616.457031 L 561.269531 602.167969 L 568.414062 599.785156 L 568.414062 595.023438 L 556.507812 595.023438 L 554.125 599.785156 L 549.363281 597.40625 C 549.8125 592.199219 549.8125 592.199219 551.746094 585.5 C 556.96875 579.605469 561.339844 574.746094 568.414062 571.210938 M 196.917969 499.769531 L 199.296875 499.769531 L 198.777344 504.179688 C 196.191406 529.65625 196.695312 555.15625 196.917969 580.734375 L 206.441406 583.117188 L 208.824219 573.589844 L 204.0625 573.589844 L 206.292969 567.042969 C 208.175781 561.289062 209.84375 555.664062 211.207031 549.777344 L 213.585938 554.539062 L 216.714844 548.738281 L 220.730469 542.632812 L 227.875 540.253906 L 227.875 578.355469 L 223.113281 578.355469 L 230.257812 583.117188 L 230.171875 574.328125 L 230.105469 562.726562 L 230.046875 556.953125 C 230 545.558594 230.722656 534.820312 232.636719 523.582031 L 235.019531 523.582031 L 235.085938 528.441406 C 235.886719 574.550781 239.621094 614.269531 263.132812 654.84375 C 270.761719 666.855469 280.152344 677.464844 289.792969 687.898438 L 282.648438 687.898438 C 278.164062 683.214844 273.945312 678.304688 269.996094 673.164062 L 266.460938 668.613281 C 251.308594 648.484375 242.34375 626.179688 235.019531 602.167969 L 235.019531 614.074219 L 230.257812 614.074219 L 227.875 618.839844 L 230.257812 606.929688 L 225.492188 604.550781 L 225.492188 599.785156 L 230.257812 599.785156 L 230.257812 595.023438 L 223.113281 595.023438 L 225.492188 583.117188 L 213.585938 585.5 L 211.207031 597.40625 L 206.441406 592.644531 L 208.824219 587.878906 L 204.0625 587.878906 C 201.421875 604.234375 202.394531 617.09375 206.441406 633.125 C 201.679688 628.363281 201.679688 628.363281 199.738281 621.628906 L 197.960938 613.480469 L 196.164062 605.40625 L 194.535156 597.40625 L 193.160156 590.996094 C 191.640625 579.097656 191.714844 567.265625 191.707031 555.285156 L 191.617188 547.882812 C 191.585938 531.347656 193.390625 515.917969 196.917969 499.769531 M 346.945312 216.382812 L 356.46875 216.382812 L 356.46875 221.144531 L 351.707031 221.144531 L 354.089844 233.050781 L 363.613281 235.433594 L 358.851562 235.433594 L 363.613281 249.722656 L 370.757812 249.722656 L 373.140625 256.867188 C 376.214844 260.140625 379.390625 263.316406 382.664062 266.390625 L 365.996094 266.390625 L 363.613281 259.246094 L 361.234375 280.679688 L 368.378906 278.300781 L 368.378906 268.773438 C 372.992188 269.667969 372.992188 269.667969 377.902344 271.15625 L 380.285156 275.917969 L 387.429688 273.535156 L 386.984375 265.5 L 387.429688 256.867188 L 394.574219 252.105469 L 396.953125 261.628906 L 394.574219 261.628906 L 389.808594 283.0625 L 380.285156 280.679688 L 382.664062 292.585938 L 385.046875 285.441406 L 389.808594 285.441406 L 389.808594 302.113281 L 373.140625 302.113281 L 375.519531 304.496094 L 380.285156 304.496094 L 377.902344 311.636719 C 373.585938 310.894531 373.585938 310.894531 368.378906 309.257812 C 364.210938 305.539062 364.210938 305.539062 361.234375 302.113281 L 361.234375 314.019531 L 349.324219 318.78125 C 347.921875 314.496094 347.921875 314.496094 346.945312 309.257812 L 350.367188 301.667969 C 356.882812 285.546875 355.566406 266.804688 354.089844 249.722656 C 352.46875 238.4375 349.875 227.394531 346.945312 216.382812 M 351.707031 545.015625 L 361.234375 545.015625 C 361.679688 550.371094 361.679688 550.371094 361.234375 556.921875 C 357.8125 562.132812 357.8125 562.132812 354.089844 566.449219 L 351.707031 571.210938 L 356.46875 571.210938 L 356.46875 575.972656 L 363.613281 575.972656 L 358.851562 573.589844 L 358.851562 561.683594 L 375.519531 564.066406 L 377.902344 559.304688 L 377.652344 567.320312 C 377.222656 587.238281 377.308594 604.851562 385.046875 623.601562 L 375.519531 614.074219 L 373.140625 621.21875 L 368.378906 621.21875 L 368.378906 625.980469 L 373.140625 628.363281 L 368.378906 633.125 C 365.699219 625.386719 365.699219 625.386719 363.613281 616.457031 C 365.699219 610.652344 365.699219 610.652344 368.378906 606.929688 L 373.140625 609.3125 L 373.140625 604.550781 L 363.613281 599.785156 L 363.613281 595.023438 L 354.089844 592.644531 L 351.707031 599.785156 L 346.945312 597.40625 L 350.667969 590.558594 L 354.089844 583.117188 L 351.707031 578.355469 L 346.945312 592.644531 L 342.183594 592.644531 L 342.183594 597.40625 L 337.417969 597.40625 C 337.292969 591.550781 337.195312 585.699219 337.121094 579.84375 C 337.082031 578.179688 337.039062 576.515625 337.003906 574.800781 C 336.960938 570.425781 337.171875 566.050781 337.417969 561.683594 L 342.183594 556.921875 L 342.183594 564.066406 L 344.5625 556.921875 L 351.707031 556.921875 Z M 351.707031 545.015625 " fill-opacity="1" fill-rule="nonzero"/><path fill="#322370" d="M 587.464844 583.117188 L 589.847656 583.117188 C 591.964844 612.84375 586.515625 639.042969 573.855469 665.972656 C 566.996094 679.257812 560.328125 689.519531 549.363281 699.804688 L 549.363281 695.042969 L 544.601562 695.042969 C 540.730469 691.917969 540.730469 691.917969 537.457031 687.898438 L 537.457031 680.753906 L 527.929688 680.753906 L 527.929688 675.992188 L 523.167969 671.230469 L 530.3125 668.847656 L 535.074219 671.230469 L 536.117188 666.761719 C 537.457031 661.703125 537.457031 661.703125 539.835938 656.941406 L 535.074219 656.941406 L 537.457031 649.796875 L 542.21875 652.175781 L 542.21875 661.703125 L 546.980469 661.703125 L 551.746094 654.558594 C 556.804688 651.730469 556.804688 651.730469 561.269531 649.796875 L 558.886719 642.652344 L 563.652344 642.652344 L 563.652344 637.890625 L 570.796875 635.507812 L 573.175781 630.746094 L 577.941406 630.746094 L 573.175781 652.175781 L 563.652344 652.175781 L 563.652344 673.609375 C 578.292969 645.285156 586.113281 615 587.464844 583.117188 M 358.851562 730.761719 L 427.910156 733.144531 L 427.910156 735.527344 L 396.953125 737.90625 L 399.335938 754.578125 L 399.335938 749.816406 L 401.714844 747.433594 L 396.953125 745.050781 L 399.335938 740.289062 L 420.769531 740.289062 L 418.386719 745.050781 L 411.242188 745.050781 L 413.625 761.722656 L 425.53125 759.339844 L 423.148438 766.484375 C 418.238281 768.121094 418.238281 768.121094 413.625 768.867188 C 430.613281 767.640625 447.007812 765.4375 463.632812 761.722656 C 458.871094 766.484375 458.871094 766.484375 453.273438 768.492188 C 434.714844 773.332031 417.566406 774.578125 398.441406 774.222656 L 390.246094 774.1875 C 377.886719 774.070312 366.265625 773.5 354.089844 771.246094 L 354.089844 768.867188 L 359.445312 768.121094 C 366.402344 766.382812 370.121094 763.941406 375.519531 759.339844 C 380.285156 761.722656 380.285156 761.722656 382.664062 764.101562 L 382.664062 756.957031 L 385.046875 754.578125 L 382.664062 749.816406 L 375.519531 749.816406 L 377.902344 740.289062 L 382.519531 741.628906 L 387.429688 742.671875 L 389.808594 740.289062 L 358.851562 733.144531 Z M 282.648438 392.605469 L 296.933594 392.605469 L 299.316406 404.511719 L 311.222656 394.988281 L 315.988281 397.367188 L 312.535156 400.667969 C 282.074219 429.492188 282.074219 429.492188 258.832031 464.046875 L 256.183594 468.53125 C 247.074219 484.773438 242.660156 503.441406 237.402344 521.199219 L 235.019531 521.199219 L 235.625 515.117188 L 236.359375 507.210938 L 237.113281 499.339844 C 237.9375 492.738281 237.9375 492.738281 235.019531 487.863281 L 227.875 490.242188 C 229.957031 485.628906 229.957031 485.628906 232.636719 480.71875 C 237.402344 478.335938 237.402344 478.335938 244.542969 478.335938 C 247.730469 472.886719 250.90625 467.429688 254.070312 461.964844 L 256.824219 457.265625 C 261.871094 449.273438 261.871094 449.273438 263.597656 440.234375 C 264.355469 435.464844 265.152344 430.703125 265.976562 425.945312 L 273.121094 433.089844 L 277.882812 425.945312 L 277.882812 414.039062 L 268.359375 409.277344 L 273.121094 399.75 L 275.503906 406.894531 L 285.027344 397.367188 Z M 361.234375 637.890625 L 365.996094 637.890625 L 365.996094 647.414062 L 373.140625 645.035156 L 373.140625 654.558594 L 380.285156 652.175781 L 394.574219 652.175781 L 394.574219 659.320312 L 401.714844 645.035156 L 408.859375 647.414062 L 413.625 654.558594 L 420.769531 654.558594 L 423.148438 671.230469 L 416.003906 673.609375 L 411.242188 678.371094 L 406.480469 668.847656 L 404.097656 678.371094 L 399.335938 678.371094 L 401.714844 661.703125 L 396.953125 666.464844 L 396.953125 668.847656 L 380.285156 666.464844 L 389.808594 675.992188 L 387.429688 680.753906 C 382.675781 676.65625 377.953125 672.527344 373.257812 668.363281 C 369.683594 665.246094 366.019531 662.230469 362.273438 659.320312 L 358.851562 654.558594 C 359.445312 645.628906 359.445312 645.628906 361.234375 637.890625 " fill-opacity="1" fill-rule="nonzero"/><path fill="#322370" d="M 389.808594 535.488281 L 392.191406 540.253906 C 390.425781 544.984375 390.425781 544.984375 387.726562 550.523438 C 381.964844 562.996094 379.535156 573.414062 379.773438 587.3125 C 381.523438 605.5625 388.828125 620.753906 399.335938 635.507812 C 401.648438 638.734375 404.03125 641.910156 406.480469 645.035156 L 401.714844 647.414062 C 399.214844 652.117188 396.835938 656.878906 394.574219 661.703125 L 392.191406 652.175781 L 375.519531 649.796875 L 377.902344 642.652344 L 370.757812 642.652344 L 373.140625 628.363281 L 368.378906 625.980469 L 368.378906 621.21875 L 373.140625 621.21875 L 375.519531 611.695312 L 382.664062 618.839844 L 379.09375 611.394531 C 373.691406 596.699219 373.679688 581.867188 375.519531 566.449219 C 382.953125 542.347656 382.953125 542.347656 389.808594 535.488281 M 344.5625 216.382812 C 350.199219 222.019531 351.113281 225.550781 353.195312 233.203125 C 358.039062 253.703125 359.660156 276.742188 354.765625 297.386719 C 353.089844 302.1875 351.230469 306.921875 349.324219 311.636719 L 351.707031 316.402344 L 354.089844 330.691406 L 356.46875 335.453125 L 349.324219 335.453125 L 346.945312 347.359375 L 340.84375 344.679688 C 332.589844 342.015625 332.589844 342.015625 323.726562 343.9375 L 315.988281 347.359375 C 312.371094 353.304688 312.371094 353.304688 311.222656 359.265625 L 294.554688 361.648438 L 306.460938 349.742188 L 311.671875 344.234375 L 315.988281 340.214844 L 320.75 340.214844 L 320.75 335.453125 L 325.511719 335.453125 L 327.457031 331.238281 C 330.273438 325.925781 333.453125 321.777344 337.269531 317.148438 C 344.835938 307.097656 349.351562 297.832031 351.707031 285.441406 C 353.660156 266.390625 350.582031 249.027344 346.125 230.515625 C 344.5625 223.527344 344.5625 223.527344 344.5625 216.382812 M 525.550781 378.316406 C 535.726562 395.511719 535.359375 420.789062 535.671875 440.382812 C 535.253906 464.769531 533.117188 491.46875 523.167969 514.058594 C 517.511719 521.5 517.511719 521.5 511.261719 525.964844 C 504.167969 526.777344 499.933594 526.203125 493.316406 523.441406 L 487.300781 520.160156 C 474.023438 512.980469 463.863281 511.316406 448.75 510.335938 L 439.632812 509.730469 L 432.675781 509.292969 L 432.675781 506.914062 C 440.261719 506.371094 447.855469 505.890625 455.449219 505.425781 L 461.90625 504.960938 C 474.808594 504.203125 484.785156 504.914062 496.972656 509.292969 L 499.355469 518.820312 L 516.023438 516.4375 L 516.023438 499.769531 L 523.167969 497.386719 C 527.027344 477.808594 528.625 459.128906 528.378906 439.191406 L 528.332031 431.351562 C 528.160156 413.589844 527.515625 395.980469 525.550781 378.316406 " fill-opacity="1" fill-rule="nonzero"/><path fill="#322370" d="M 365.996094 504.53125 L 373.140625 504.53125 L 373.140625 509.292969 L 377.902344 509.292969 L 380.285156 525.964844 L 389.808594 523.582031 C 391.363281 528.820312 391.363281 528.820312 392.191406 535.488281 C 389.820312 541.339844 389.820312 541.339844 386.386719 546.949219 L 382.972656 552.652344 L 380.285156 556.921875 L 377.902344 549.777344 L 373.140625 547.394531 L 375.519531 542.632812 L 368.378906 540.253906 L 368.378906 537.871094 L 363.613281 540.253906 L 361.234375 537.871094 L 356.46875 537.871094 L 354.089844 542.632812 L 346.945312 535.488281 C 349.855469 525.859375 353.203125 517.644531 358.851562 509.292969 L 361.234375 509.292969 L 361.234375 523.582031 L 365.996094 521.199219 L 365.996094 504.53125 M 413.625 468.808594 C 420.230469 468.890625 426.816406 469.046875 433.421875 469.257812 L 439.085938 469.296875 C 444.359375 469.5 449.019531 469.792969 454.105469 471.191406 C 458.972656 477.265625 458.972656 477.265625 461.25 483.097656 L 451.726562 487.863281 L 449.34375 483.097656 L 454.105469 483.097656 C 451.386719 479.375 451.386719 479.375 446.964844 475.953125 C 439.5625 474.222656 439.5625 474.222656 432.675781 473.574219 L 432.675781 483.097656 L 437.4375 483.097656 L 435.054688 487.863281 L 418.386719 483.097656 L 418.386719 487.863281 L 425.53125 490.242188 L 420.769531 492.625 C 426.921875 498.074219 431.359375 501.796875 439.375 503.9375 L 444.582031 504.53125 L 444.582031 506.914062 L 423.148438 509.292969 L 427.910156 506.914062 L 420.769531 504.53125 L 418.386719 502.148438 C 413.496094 503.125 413.496094 503.125 408.859375 504.53125 L 406.480469 497.386719 C 402.550781 495.695312 398.582031 494.109375 394.574219 492.625 C 391.3125 490.355469 388.136719 487.976562 385.046875 485.480469 C 388.058594 483.8125 391.089844 482.183594 394.128906 480.570312 L 399.234375 477.808594 L 404.097656 475.953125 L 411.242188 478.335938 L 401.714844 483.097656 L 401.714844 487.863281 L 423.148438 478.335938 L 413.625 478.335938 Z M 413.625 468.808594 " fill-opacity="1" fill-rule="nonzero"/><path fill="#7455de" d="M 394.574219 690.28125 L 399.445312 691.757812 L 405.882812 693.703125 L 412.246094 695.628906 C 425.910156 699.625 437.949219 700.242188 452.171875 700.253906 L 458.726562 700.339844 C 472.996094 700.371094 485.535156 698.613281 499.355469 695.042969 C 486.585938 709.515625 470.324219 719.277344 452.171875 725.703125 C 444.707031 727.964844 438.152344 729.140625 430.292969 728.382812 C 437.289062 724.753906 444.382812 721.710938 451.726562 718.855469 L 444.582031 716.476562 L 444.582031 711.710938 L 449.34375 709.332031 L 443.410156 708.707031 C 424.984375 706.386719 410.566406 702.121094 394.574219 692.660156 Z M 394.574219 690.28125 " fill-opacity="1" fill-rule="nonzero"/><path fill="#322370" d="M 306.460938 704.566406 C 317.171875 708.585938 327.25 713.65625 337.417969 718.855469 L 337.417969 723.621094 L 342.183594 726 L 342.183594 745.050781 L 337.417969 745.050781 L 337.417969 733.144531 L 328.042969 734.039062 C 326.300781 734.203125 324.5625 734.371094 322.769531 734.539062 L 318.367188 735.527344 L 315.988281 740.289062 L 320.75 742.671875 L 320.75 756.957031 L 325.511719 759.339844 C 316.578125 757.898438 309.339844 755.339844 301.253906 751.304688 L 295.046875 748.269531 C 289.792969 745.050781 289.792969 745.050781 285.027344 737.90625 L 301.699219 740.289062 L 301.699219 735.527344 L 308.84375 733.144531 L 308.84375 740.289062 L 313.605469 740.289062 L 311.222656 723.621094 L 320.75 726 L 323.128906 716.476562 L 317.476562 714.542969 L 311.222656 711.710938 Z M 306.460938 704.566406 " fill-opacity="1" fill-rule="nonzero"/><path fill="#7455de" d="M 396.953125 256.867188 C 430.648438 277.519531 451.699219 305.425781 470.851562 339.386719 L 473.160156 344.976562 L 470.777344 352.121094 L 466.84375 344.707031 C 451.960938 317.164062 436.164062 293.160156 411.242188 273.535156 L 411.242188 287.824219 L 418.386719 290.207031 L 413.625 299.730469 L 408.859375 299.730469 L 408.859375 294.96875 L 401.714844 297.351562 C 401.417969 281.277344 401.417969 281.277344 404.097656 275.917969 L 399.335938 275.917969 L 399.335938 287.824219 L 396.953125 287.824219 Z M 246.925781 618.839844 C 254.246094 628.054688 259.367188 638.0625 264.785156 648.464844 C 267.96875 653.898438 270.625 657.765625 275.503906 661.703125 L 280.265625 661.703125 L 282.648438 654.558594 L 282.648438 661.703125 L 287.410156 664.085938 L 289.792969 671.230469 L 285.027344 673.609375 C 288.589844 682.421875 293.53125 686.839844 300.957031 692.660156 C 305.140625 695.875 309.359375 699.050781 313.605469 702.1875 L 317.957031 705.453125 C 326.566406 711.15625 334.371094 712.539062 344.414062 713.5 C 348.429688 713.738281 352.449219 713.949219 356.46875 714.09375 L 356.46875 726 C 337.074219 724.203125 322.226562 715.347656 306.460938 704.566406 C 280.765625 684.753906 263.667969 660.886719 249.382812 632.007812 C 246.925781 625.980469 246.925781 625.980469 246.925781 618.839844 M 339.800781 375.9375 L 344.5625 378.316406 L 339.800781 383.082031 C 340.5625 389.277344 340.5625 389.277344 342.183594 394.988281 L 335.039062 394.988281 L 330.273438 390.222656 C 327 393.300781 323.824219 396.476562 320.75 399.75 L 320.75 404.511719 L 325.511719 409.277344 L 327.894531 414.039062 L 330.273438 409.277344 L 337.417969 416.417969 C 333.25 419.992188 333.25 419.992188 327.894531 423.5625 L 318.367188 423.5625 L 320.75 414.039062 L 311.222656 416.417969 L 313.605469 411.65625 L 318.367188 411.65625 L 315.988281 406.894531 C 311.382812 408.496094 311.382812 408.496094 306.460938 411.65625 C 302.285156 417.6875 302.285156 417.6875 299.316406 423.5625 L 308.84375 425.945312 L 304.078125 425.945312 L 304.078125 430.707031 L 311.222656 430.707031 L 313.605469 437.851562 L 308.84375 437.851562 L 308.84375 433.089844 L 301.699219 433.089844 L 301.699219 428.328125 L 298.722656 432.046875 L 294.554688 435.472656 L 289.941406 434.28125 L 285.027344 433.089844 C 279.675781 436.308594 279.675781 436.308594 275.503906 440.234375 C 278.589844 433.445312 281.851562 428.511719 287.101562 423.238281 L 291.214844 419.097656 L 295.59375 414.785156 L 300.070312 410.335938 C 312.652344 397.984375 325.839844 386.710938 339.800781 375.9375 " fill-opacity="1" fill-rule="nonzero"/><path fill="#322370" d="M 349.324219 192.570312 C 362.863281 192.789062 372.933594 196.289062 385.046875 202.09375 L 380.285156 204.476562 L 377.902344 209.238281 L 370.757812 211.621094 C 367.566406 213.171875 364.386719 214.75 361.234375 216.382812 L 363.613281 221.144531 L 358.851562 223.527344 L 361.234375 230.671875 L 354.089844 233.050781 L 351.707031 221.144531 L 356.46875 221.144531 L 356.46875 216.382812 L 342.183594 216.382812 C 340.394531 209.832031 340.394531 209.832031 339.800781 202.09375 C 343.226562 196.289062 343.226562 196.289062 349.324219 192.570312 " fill-opacity="1" fill-rule="nonzero"/><path fill="#7455de" d="M 339.800781 530.726562 L 342.183594 537.871094 C 340.9375 543.648438 340.9375 543.648438 338.90625 550.523438 C 334.527344 566.863281 333.378906 582.933594 332.65625 599.785156 L 330.273438 599.785156 L 329.921875 592.660156 L 329.382812 583.414062 C 329.214844 580.375 329.046875 577.335938 328.882812 574.207031 C 328.554688 571.644531 328.230469 569.085938 327.894531 566.449219 L 323.128906 561.683594 L 323.128906 554.539062 L 318.367188 554.539062 L 320.75 571.210938 L 318.367188 566.449219 C 313.546875 564.894531 313.546875 564.894531 308.84375 564.066406 L 315.988281 561.683594 L 310.03125 557.21875 L 304.078125 552.160156 L 304.078125 547.394531 L 313.605469 542.632812 L 313.605469 547.394531 L 320.75 545.015625 L 315.988281 545.015625 L 315.988281 533.109375 L 337.417969 540.253906 Z M 339.800781 530.726562 " fill-opacity="1" fill-rule="nonzero"/><path fill="#322370" d="M 587.464844 583.117188 L 589.847656 583.117188 C 591.964844 612.84375 586.515625 639.042969 573.855469 665.972656 C 566.996094 679.257812 560.328125 689.519531 549.363281 699.804688 L 549.363281 695.042969 L 544.601562 695.042969 C 540.730469 692.511719 540.730469 692.511719 537.457031 687.898438 C 537.011719 679.117188 537.011719 679.117188 537.457031 671.230469 L 551.746094 671.230469 L 549.363281 675.992188 L 544.601562 673.609375 L 556.507812 685.515625 L 554.125 678.371094 L 558.886719 678.371094 L 558.886719 673.609375 L 554.125 673.609375 L 556.507812 668.847656 L 563.652344 673.609375 C 578.292969 645.285156 586.113281 615 587.464844 583.117188 M 432.675781 728.382812 L 446.964844 730.761719 L 442.199219 735.527344 C 443.003906 740.335938 443.003906 740.335938 444.582031 745.050781 L 444.582031 749.816406 L 449.34375 752.195312 L 449.34375 761.722656 L 461.25 759.339844 C 455.734375 764.859375 452.492188 765.859375 445.03125 767.972656 C 423.054688 773.324219 400.359375 771.863281 377.902344 771.246094 L 377.902344 768.867188 L 423.148438 766.484375 L 425.53125 756.957031 L 437.4375 754.578125 L 439.820312 747.433594 L 430.292969 740.289062 L 435.054688 740.289062 Z M 363.613281 733.144531 C 368.839844 733.75 374.050781 734.519531 379.242188 735.378906 C 383.519531 736.070312 383.519531 736.070312 387.882812 736.785156 L 394.574219 737.90625 L 389.808594 740.289062 L 392.191406 747.433594 L 387.429688 747.433594 L 385.046875 742.671875 L 377.902344 740.289062 L 380.285156 752.195312 L 382.664062 747.433594 L 385.046875 754.578125 L 389.808594 754.578125 L 387.429688 759.339844 L 382.664062 756.957031 L 382.664062 764.101562 L 375.519531 761.722656 L 370.757812 768.867188 C 362.421875 769.609375 362.421875 769.609375 354.089844 768.867188 L 349.324219 764.101562 L 361.234375 764.101562 L 361.148438 757.933594 L 361.082031 749.960938 L 361 742.007812 L 361.234375 735.527344 Z M 546.980469 592.644531 L 551.335938 593.824219 C 557.160156 595.175781 562.449219 595.191406 568.414062 595.023438 L 568.414062 599.785156 L 573.175781 602.167969 L 566.03125 604.550781 L 563.652344 602.167969 L 563.652344 616.457031 L 556.507812 616.457031 L 551.746094 625.980469 L 546.980469 625.980469 L 546.980469 618.839844 C 536.164062 623.382812 536.164062 623.382812 525.550781 628.363281 C 529.398438 620.195312 534.066406 612.734375 538.945312 605.144531 L 543.503906 598.039062 Z M 404.097656 221.144531 L 408.265625 224.867188 L 413.625 228.289062 C 418.621094 227.335938 418.621094 227.335938 423.148438 225.910156 L 427.910156 230.671875 L 427.910156 240.195312 L 423.445312 241.984375 C 418.199219 244.636719 418.199219 244.636719 415.113281 249.277344 L 413.625 254.484375 C 415.496094 260.960938 415.496094 260.960938 418.386719 266.390625 C 409.296875 262.6875 403.640625 256.78125 396.953125 249.722656 L 401.570312 245.257812 C 406.570312 240.609375 406.570312 240.609375 408.859375 235.433594 L 404.097656 235.433594 L 404.097656 240.195312 L 396.953125 237.816406 L 398.144531 233.351562 C 399.515625 228.382812 399.515625 228.382812 399.335938 223.527344 Z M 404.097656 221.144531 " fill-opacity="1" fill-rule="nonzero"/><path fill="#7455de" d="M 270.738281 442.613281 L 273.121094 447.378906 L 269.996094 452.140625 C 264.507812 461.894531 262.34375 471.988281 261.214844 483.097656 L 263.597656 490.242188 L 268.359375 492.625 L 265.976562 499.769531 L 249.308594 502.148438 L 249.308594 495.003906 L 244.542969 499.769531 C 245.3125 482.835938 252.792969 469 261.214844 454.523438 C 264.296875 450.480469 267.472656 446.507812 270.738281 442.613281 " fill-opacity="1" fill-rule="nonzero"/><path fill="#322370" d="M 392.191406 256.867188 L 396.953125 261.628906 C 397.8125 284.039062 394.15625 305.398438 385.046875 325.925781 C 381.394531 332.617188 377.488281 338.699219 373.140625 344.976562 C 373.140625 337.125 374.910156 332.679688 377.902344 325.480469 L 380.582031 318.976562 L 382.664062 314.019531 L 370.757812 314.019531 C 373.140625 309.257812 373.140625 309.257812 375.519531 306.875 L 370.757812 304.496094 L 373.140625 299.730469 L 389.808594 302.113281 L 389.808594 285.441406 L 380.285156 297.351562 C 378.945312 293.035156 378.945312 293.035156 377.902344 287.824219 L 380.285156 280.679688 L 389.808594 283.0625 Z M 576.152344 571.210938 L 582.703125 573.589844 C 585.976562 578.503906 585.976562 578.503906 587.464844 583.117188 C 583.632812 587.84375 583.632812 587.84375 577.941406 592.644531 C 570.757812 593.570312 570.757812 593.570312 563.054688 593.238281 L 555.277344 592.976562 L 549.363281 592.644531 C 552.273438 584.378906 553.855469 580.96875 560.675781 575.078125 C 568.414062 571.210938 568.414062 571.210938 576.152344 571.210938 M 420.769531 468.808594 C 428.753906 468.601562 436.742188 468.476562 444.730469 468.363281 L 451.535156 468.179688 C 465.457031 468.039062 475.09375 469.425781 487.445312 475.953125 C 483.132812 477.296875 483.132812 477.296875 477.921875 478.335938 L 470.777344 475.953125 L 470.777344 483.097656 L 461.25 487.863281 L 463.632812 495.003906 L 455.59375 492.476562 C 452.746094 491.738281 449.898438 491 446.964844 490.242188 L 442.199219 492.625 L 446.964844 475.953125 L 454.105469 478.335938 L 454.105469 485.480469 L 458.871094 480.71875 L 454.105469 471.191406 L 420.769531 471.191406 Z M 218.347656 616.457031 L 220.730469 623.601562 L 225.492188 623.601562 L 230.257812 635.507812 L 225.492188 637.890625 L 225.492188 645.035156 L 218.347656 645.035156 L 219.835938 650.6875 L 220.730469 656.941406 L 215.96875 661.703125 C 214.300781 658.742188 212.664062 655.765625 211.058594 652.773438 L 208.296875 647.75 C 206.441406 642.652344 206.441406 642.652344 207.203125 637.734375 L 208.824219 633.125 L 211.058594 625.535156 C 211.890625 623.324219 212.722656 621.113281 213.585938 618.839844 Z M 218.347656 616.457031 " fill-opacity="1" fill-rule="nonzero"/><path fill="#7455de" d="M 487.445312 411.65625 L 492.210938 414.039062 C 492.277344 423.015625 492.320312 432 492.359375 440.980469 L 492.417969 448.714844 L 492.441406 456.132812 L 492.480469 462.972656 C 492.210938 468.808594 492.210938 468.808594 489.828125 475.953125 L 461.25 468.808594 L 461.25 466.429688 L 475.539062 464.046875 L 475.539062 456.902344 L 485.066406 456.902344 Z M 401.714844 454.523438 L 408.859375 456.902344 L 408.859375 461.667969 L 456.488281 464.046875 L 456.488281 466.429688 L 448.117188 467.054688 C 425.535156 468.976562 405.011719 471.472656 385.046875 483.097656 C 376.761719 489.015625 368.824219 495.363281 361.234375 502.148438 L 361.234375 495.003906 L 365.996094 490.242188 C 367.679688 486.3125 369.28125 482.347656 370.757812 478.335938 L 377.753906 477.742188 C 389.027344 476.191406 398.714844 471.375 408.859375 466.429688 Z M 401.714844 454.523438 " fill-opacity="1" fill-rule="nonzero"/><path fill="#322370" d="M 218.347656 442.613281 L 220.730469 447.378906 L 225.492188 447.378906 L 225.492188 452.140625 L 232.636719 454.523438 L 218.347656 454.523438 L 217.308594 459.878906 C 216.203125 465.285156 214.96875 470.617188 213.585938 475.953125 L 223.113281 478.335938 L 225.492188 473.574219 L 225.492188 480.71875 L 211.207031 480.71875 L 211.207031 492.625 L 206.59375 493.515625 L 201.679688 495.003906 L 199.296875 499.769531 C 200.699219 479.675781 209.082031 460.332031 218.347656 442.613281 M 442.199219 294.96875 L 446.964844 294.96875 C 450.035156 298.613281 450.035156 298.613281 453.214844 303.304688 L 456.433594 307.992188 L 458.871094 311.636719 L 461.25 304.496094 L 466.015625 306.875 L 468.394531 311.636719 L 466.015625 318.78125 L 470.777344 321.164062 L 468.394531 328.308594 C 471.558594 335.753906 475.085938 342.835938 478.8125 350.003906 C 484.378906 361.191406 486.476562 370.605469 487.445312 383.082031 C 482.742188 376.027344 480.429688 370.050781 477.625 362.09375 C 469.964844 341.800781 460.054688 321.953125 446.378906 305.011719 L 442.199219 299.730469 Z M 268.359375 440.234375 C 268.359375 447.378906 268.359375 447.378906 265.132812 452.984375 L 260.765625 459.730469 C 252.671875 473.144531 247.820312 486.28125 243.589844 501.328125 C 241.433594 508.976562 239.476562 514.515625 235.019531 521.199219 L 235.625 515.117188 L 236.359375 507.210938 L 237.113281 499.339844 C 237.9375 492.738281 237.9375 492.738281 235.019531 487.863281 L 227.875 490.242188 C 229.957031 485.628906 229.957031 485.628906 232.636719 480.71875 C 237.402344 478.335938 237.402344 478.335938 244.542969 478.335938 L 248.546875 471.210938 L 253.773438 461.964844 L 256.402344 457.265625 C 259.992188 450.941406 263.191406 445.402344 268.359375 440.234375 M 218.347656 661.703125 L 232.636719 661.703125 C 234.238281 665.519531 235.828125 669.339844 237.402344 673.164062 L 240.078125 679.609375 C 242.164062 685.515625 242.164062 685.515625 242.164062 692.660156 L 246.925781 695.042969 L 242.164062 702.1875 C 238.625 697.238281 235.101562 692.277344 231.597656 687.304688 L 228.558594 683.070312 C 219.503906 670.171875 219.503906 670.171875 218.347656 661.703125 M 496.972656 647.414062 L 501.734375 649.796875 L 496.972656 656.941406 L 489.828125 659.320312 L 499.355469 661.703125 L 496.972656 668.847656 L 489.828125 666.464844 L 494.589844 666.464844 L 494.589844 661.703125 C 489.886719 662.53125 489.886719 662.53125 485.066406 664.085938 L 482.683594 668.847656 L 485.066406 659.320312 L 475.539062 668.847656 L 468.394531 664.085938 C 462.957031 663.496094 457.488281 663.125 452.023438 662.894531 C 441.285156 662.4375 432.917969 661.546875 423.148438 656.941406 L 430.292969 654.558594 L 437.4375 656.941406 C 457.28125 658.535156 473.652344 657.304688 491.949219 649.265625 Z M 496.972656 647.414062 " fill-opacity="1" fill-rule="nonzero"/><path fill="#7455de" d="M 392.191406 709.332031 L 396.953125 709.332031 L 396.953125 723.621094 L 416.003906 718.855469 L 413.625 728.382812 L 427.910156 728.382812 L 420.769531 733.144531 C 414.273438 733.488281 407.773438 733.585938 401.269531 733.441406 L 395.859375 733.378906 C 391.460938 733.320312 387.0625 733.234375 382.664062 733.144531 L 382.664062 730.761719 L 404.097656 730.761719 L 404.097656 726 L 382.664062 726 L 387.429688 716.476562 L 392.191406 716.476562 Z M 392.191406 709.332031 " fill-opacity="1" fill-rule="nonzero"/><path fill="#322370" d="M 492.210938 380.699219 L 496.972656 380.699219 L 496.972656 385.460938 L 506.496094 387.84375 L 501.734375 390.222656 L 499.355469 397.367188 L 494.589844 394.988281 L 492.210938 402.132812 L 496.972656 404.511719 L 494.589844 475.953125 L 492.210938 475.953125 L 492.027344 470.460938 C 491.753906 462.222656 491.460938 453.980469 491.167969 445.742188 L 490.882812 437.09375 L 490.582031 428.746094 L 490.320312 421.074219 C 489.863281 414.546875 488.789062 408.523438 487.445312 402.132812 C 487 393.351562 487 393.351562 487.445312 385.460938 Z M 289.792969 361.648438 L 294.554688 364.027344 L 294.554688 366.410156 L 299.316406 366.410156 L 299.316406 380.699219 L 301.699219 380.699219 L 301.699219 392.605469 L 285.027344 390.222656 C 280.832031 377.636719 280.832031 377.636719 280.265625 371.171875 C 284.730469 365.21875 284.730469 365.21875 289.792969 361.648438 M 477.921875 730.761719 L 480.300781 735.527344 C 486.445312 737.167969 486.445312 737.167969 493.550781 738.207031 L 500.851562 739.414062 L 506.496094 740.289062 C 497.445312 747.972656 488.519531 754.042969 477.921875 759.339844 L 470.777344 756.957031 L 480.300781 754.578125 L 480.300781 742.671875 L 473.160156 745.050781 L 470.777344 737.90625 L 477.921875 737.90625 Z M 385.046875 204.476562 C 399.257812 208.214844 410.835938 215.789062 423.148438 223.527344 L 420.769531 230.671875 C 413.855469 229.710938 409.359375 228.625 403.503906 224.71875 C 401.265625 222.796875 399.039062 220.851562 396.953125 218.765625 L 392.191406 221.144531 L 392.191406 216.382812 L 385.046875 214 Z M 275.503906 373.554688 L 280.265625 375.9375 L 273.121094 385.460938 L 275.503906 390.222656 L 263.597656 392.605469 L 263.597656 404.511719 L 258.832031 406.894531 L 258.832031 402.132812 L 254.070312 402.132812 L 254.070312 406.894531 L 239.78125 414.039062 C 247.65625 397.105469 261.175781 385.128906 275.503906 373.554688 M 523.167969 385.460938 L 527.929688 390.222656 C 530.746094 405.671875 530.59375 421 530.460938 436.660156 L 530.429688 443.972656 C 530.398438 449.871094 530.359375 455.769531 530.3125 461.667969 L 527.929688 461.667969 L 525.550781 425.945312 L 518.40625 425.945312 C 514.386719 422.375 514.386719 422.375 511.261719 418.800781 L 518.40625 418.800781 L 520.785156 414.039062 L 523.167969 414.039062 Z M 335.039062 552.160156 L 339.800781 552.160156 L 337.417969 597.40625 L 342.183594 597.40625 L 339.800781 590.261719 L 346.945312 587.878906 L 349.324219 575.972656 L 356.46875 578.355469 C 354.128906 587.503906 351.90625 592.421875 345.457031 599.488281 L 339.800781 604.550781 L 339.800781 599.785156 L 335.039062 599.785156 Z M 580.320312 623.601562 L 582.703125 630.746094 C 578.648438 647.535156 571.816406 663.210938 563.652344 678.371094 C 561.140625 674.167969 561.140625 674.167969 558.886719 668.847656 C 560.972656 659.917969 560.972656 659.917969 563.652344 652.175781 L 573.175781 652.175781 L 577.941406 630.746094 L 573.175781 628.363281 L 580.320312 628.363281 Z M 418.386719 471.191406 L 413.625 473.574219 L 430.292969 478.335938 L 426.277344 479.082031 C 420.441406 480.558594 420.441406 480.558594 414.667969 484.4375 L 408.859375 487.863281 L 401.714844 487.863281 L 401.714844 483.097656 L 408.859375 478.335938 L 385.046875 485.480469 L 385.046875 480.71875 C 407.457031 469.78125 407.457031 469.78125 418.386719 471.191406 M 237.402344 414.039062 C 241.316406 421.867188 243.148438 427.089844 244.542969 435.472656 L 239.78125 437.851562 C 235 437.183594 230.234375 436.398438 225.492188 435.472656 L 223.113281 442.613281 L 220.730469 437.851562 Z M 392.191406 256.867188 L 396.953125 261.628906 C 396.917969 267.695312 396.621094 273.746094 396.0625 279.789062 L 395.652344 284.882812 C 395.316406 289.042969 394.945312 293.195312 394.574219 297.351562 L 389.808594 290.207031 L 387.429688 287.824219 L 380.285156 297.351562 C 378.945312 293.035156 378.945312 293.035156 377.902344 287.824219 L 380.285156 280.679688 L 389.808594 283.0625 Z M 389.808594 754.578125 L 394.574219 764.101562 C 389.808594 768.867188 389.808594 768.867188 385.046875 770.355469 C 374.722656 771.644531 364.476562 771.429688 354.089844 771.246094 L 354.089844 768.867188 L 359.445312 768.121094 C 366.402344 766.382812 370.121094 763.941406 375.519531 759.339844 C 380.285156 761.722656 380.285156 761.722656 382.664062 764.101562 L 382.664062 756.957031 Z M 389.808594 754.578125 " fill-opacity="1" fill-rule="nonzero"/><path fill="#7455de" d="M 237.402344 571.210938 L 242.164062 573.589844 C 243.925781 579.898438 245.511719 586.25 246.925781 592.644531 L 248.40625 597.730469 L 249.308594 602.167969 L 246.925781 606.929688 C 246.085938 610.09375 245.292969 613.269531 244.542969 616.457031 C 237.503906 600.90625 236.558594 588.179688 237.402344 571.210938 " fill-opacity="1" fill-rule="nonzero"/><path fill="#322370" d="M 285.027344 737.90625 C 288.503906 739.042969 291.976562 740.1875 295.445312 741.332031 L 301.304688 743.257812 C 306.460938 745.050781 306.460938 745.050781 311.222656 747.433594 L 311.222656 742.671875 L 315.988281 742.671875 L 315.988281 752.195312 L 320.75 752.195312 L 320.75 756.957031 L 325.511719 759.339844 C 316.578125 757.898438 309.339844 755.339844 301.253906 751.304688 L 295.046875 748.269531 C 289.792969 745.050781 289.792969 745.050781 285.027344 737.90625 M 568.414062 571.210938 C 575.558594 571.507812 575.558594 571.507812 582.703125 573.589844 C 585.976562 578.503906 585.976562 578.503906 587.464844 583.117188 C 583.296875 587.878906 583.296875 587.878906 577.941406 592.644531 L 568.414062 592.644531 L 568.414062 585.5 L 563.652344 583.117188 C 567.59375 582.191406 571.5625 581.394531 575.558594 580.734375 L 580.320312 583.117188 L 580.320312 575.972656 L 563.652344 575.972656 Z M 568.414062 571.210938 " fill-opacity="1" fill-rule="nonzero"/><path fill="#7455de" d="M 242.164062 502.148438 L 244.542969 502.148438 L 242.164062 523.582031 L 249.308594 521.199219 L 251.6875 525.964844 L 248.414062 528.792969 C 243.886719 533.839844 242.015625 538.65625 239.78125 545.015625 L 237.402344 545.015625 C 237.273438 540.105469 237.175781 535.191406 237.101562 530.28125 L 236.9375 521.992188 C 237.386719 514.253906 238.84375 509.085938 242.164062 502.148438 " fill-opacity="1" fill-rule="nonzero"/><path fill="#322370" d="M 406.480469 645.035156 C 417.792969 649.5 417.792969 649.5 423.148438 652.175781 L 423.148438 661.703125 L 427.910156 664.085938 C 430.589844 668.996094 430.589844 668.996094 432.675781 673.609375 L 427.910156 673.609375 L 427.910156 678.371094 L 418.386719 675.992188 L 418.386719 668.847656 L 423.148438 671.230469 L 420.769531 654.558594 L 411.242188 656.941406 Z M 506.496094 325.925781 C 513.722656 334.183594 518.25 343.859375 520.785156 354.503906 L 518.40625 361.648438 L 518.40625 356.886719 L 499.355469 364.027344 L 496.972656 354.503906 L 504.117188 356.886719 L 508.878906 354.503906 L 506.496094 349.742188 L 513.640625 349.742188 L 510.070312 341.851562 C 506.496094 333.070312 506.496094 333.070312 506.496094 325.925781 " fill-opacity="1" fill-rule="nonzero"/><path fill="#7455de" d="M 449.34375 706.949219 C 455.59375 706.652344 455.59375 706.652344 461.25 706.949219 L 461.25 721.238281 C 441.179688 729.402344 441.179688 729.402344 430.292969 728.382812 C 437.289062 724.753906 444.382812 721.710938 451.726562 718.855469 L 444.582031 716.476562 L 444.582031 711.710938 Z M 449.34375 706.949219 " fill-opacity="1" fill-rule="nonzero"/><path fill="#322370" d="M 425.53125 685.515625 L 427.910156 692.660156 L 423.148438 699.804688 L 399.335938 692.660156 L 399.335938 687.898438 L 404.460938 687.980469 C 406.652344 688.003906 408.839844 688.023438 411.09375 688.046875 L 417.707031 688.132812 L 423.148438 687.898438 Z M 199.296875 595.023438 L 201.679688 602.167969 L 208.824219 602.167969 L 211.207031 609.3125 L 206.441406 609.3125 L 208.824219 612.882812 C 212.242188 621.433594 211.511719 628.707031 211.207031 637.890625 C 204.574219 631.257812 203.28125 624.277344 200.722656 615.398438 C 199.097656 608.453125 198.734375 602.128906 199.296875 595.023438 " fill-opacity="1" fill-rule="nonzero"/><path fill="#7455de" d="M 494.589844 695.042969 L 499.355469 697.425781 C 496.328125 699.707031 493.304688 701.992188 490.277344 704.269531 L 485.167969 708.121094 C 481.230469 711 477.226562 713.785156 473.160156 716.476562 L 466.015625 714.09375 L 469.585938 710.820312 L 473.160156 706.949219 L 473.160156 702.1875 C 476.625 700.925781 480.097656 699.6875 483.578125 698.46875 L 489.433594 696.371094 Z M 494.589844 695.042969 " fill-opacity="1" fill-rule="nonzero"/><path fill="#322370" d="M 306.460938 728.382812 L 313.605469 730.761719 L 313.605469 740.289062 L 308.84375 740.289062 L 306.460938 735.527344 L 301.699219 735.527344 L 304.078125 742.671875 C 298.722656 743.265625 298.722656 743.265625 292.171875 742.671875 C 286.667969 737.90625 286.667969 737.90625 282.648438 733.144531 C 286.109375 733.214844 286.109375 733.214844 289.644531 733.292969 L 296.933594 733.144531 L 299.316406 730.761719 Z M 520.785156 361.648438 C 525.550781 368.792969 525.550781 368.792969 526.144531 376.828125 C 525.589844 384.875 524.269531 390.183594 520.785156 397.367188 C 515.433594 392.480469 513.636719 390.207031 511.261719 383.082031 L 516.023438 378.316406 L 520.785156 371.171875 Z M 539.835938 604.550781 L 544.601562 611.695312 L 542.21875 616.457031 L 554.125 616.457031 L 551.746094 625.980469 L 546.980469 625.980469 L 546.980469 618.839844 C 536.164062 623.382812 536.164062 623.382812 525.550781 628.363281 C 529.484375 619.839844 534.558594 612.292969 539.835938 604.550781 M 365.996094 347.359375 L 365.996094 354.503906 C 361.640625 359.808594 361.640625 359.808594 355.875 365.515625 L 350.183594 371.265625 C 344.5625 375.9375 344.5625 375.9375 339.089844 377.777344 L 335.039062 378.316406 L 337.417969 373.554688 L 332.65625 368.792969 L 337.417969 368.792969 L 339.800781 364.027344 L 349.324219 364.027344 C 354.070312 360.433594 354.070312 360.433594 358.257812 355.695312 L 362.6875 351.003906 Z M 244.542969 702.1875 C 254.53125 703.785156 262.175781 708.988281 270.738281 714.09375 L 268.359375 726 C 250.539062 711.355469 250.539062 711.355469 244.542969 702.1875 M 330.273438 749.816406 L 337.417969 754.578125 L 337.417969 759.339844 L 349.324219 759.339844 L 349.324219 766.484375 L 354.089844 768.867188 C 344.097656 767.4375 335.015625 765.113281 325.511719 761.722656 L 332.65625 759.339844 Z M 396.953125 635.507812 L 406.480469 645.035156 L 401.714844 647.414062 C 399.214844 652.117188 396.835938 656.878906 394.574219 661.703125 L 392.191406 652.175781 L 385.046875 652.175781 L 385.046875 647.414062 L 392.191406 645.035156 C 395.070312 640.269531 395.070312 640.269531 396.953125 635.507812 M 206.441406 633.125 L 208.824219 637.890625 L 215.96875 635.507812 L 220.730469 640.269531 L 218.347656 647.414062 L 219.691406 652.328125 L 220.730469 656.941406 L 215.96875 661.703125 C 214.359375 658.738281 212.773438 655.761719 211.207031 652.773438 L 208.527344 647.75 C 206.441406 642.652344 206.441406 642.652344 206.441406 633.125 " fill-opacity="1" fill-rule="nonzero"/><path fill="#322370" d="M 518.40625 356.886719 C 521.792969 365.988281 523.738281 373.347656 523.167969 383.082031 L 513.640625 364.027344 L 511.261719 368.792969 L 516.023438 371.171875 L 504.117188 373.554688 L 506.496094 366.410156 L 501.734375 361.648438 C 513.046875 356.886719 513.046875 356.886719 518.40625 356.886719 " fill-opacity="1" fill-rule="nonzero"/><path fill="#7455de" d="M 270.738281 442.613281 L 273.121094 447.378906 L 269.996094 452.4375 C 264.972656 460.996094 263.347656 468.664062 261.214844 478.335938 L 254.070312 475.953125 C 255.402344 466.453125 258.253906 460.414062 263.746094 452.589844 L 267.699219 446.886719 Z M 339.800781 375.9375 L 344.5625 378.316406 L 339.800781 383.082031 C 340.5625 389.277344 340.5625 389.277344 342.183594 394.988281 L 335.039062 394.988281 L 330.273438 390.222656 L 323.128906 397.367188 L 318.367188 394.988281 Z M 339.800781 375.9375 " fill-opacity="1" fill-rule="nonzero"/><path fill="#322370" d="M 473.160156 273.535156 L 485.066406 285.441406 L 482.683594 290.207031 L 475.539062 292.585938 C 470.332031 289.761719 470.332031 289.761719 466.015625 285.441406 L 466.015625 275.917969 L 470.777344 275.917969 L 473.160156 278.300781 Z M 346.945312 197.332031 C 358.691406 196.742188 367.183594 196.734375 377.902344 202.09375 L 370.757812 204.476562 C 365.152344 203.058594 359.597656 201.46875 354.089844 199.714844 L 354.089844 204.476562 L 358.851562 206.855469 L 346.945312 206.855469 L 344.5625 214 C 344.460938 209.238281 344.46875 204.476562 344.5625 199.714844 Z M 380.285156 666.464844 C 387.28125 668.402344 387.28125 668.402344 394.574219 671.230469 C 396.953125 678.371094 396.953125 678.371094 396.953125 685.515625 L 392.191406 687.898438 L 382.664062 678.371094 L 385.046875 675.992188 Z M 544.601562 602.167969 L 554.125 602.167969 L 558.886719 611.695312 L 554.125 611.695312 L 554.125 616.457031 L 542.21875 616.457031 C 542.121094 612.488281 542.121094 608.519531 542.21875 604.550781 Z M 451.726562 249.722656 L 468.394531 264.011719 L 466.015625 268.773438 L 461.25 264.011719 L 458.871094 271.15625 L 451.726562 271.15625 Z M 470.777344 737.90625 L 487.445312 742.671875 L 489.828125 752.195312 C 484.324219 755.917969 484.324219 755.917969 477.921875 759.339844 L 470.777344 756.957031 L 480.300781 754.578125 L 480.300781 742.671875 L 473.160156 745.050781 Z M 401.714844 218.765625 C 408.5625 218.167969 408.5625 218.167969 416.003906 218.765625 C 420.46875 222.335938 420.46875 222.335938 423.148438 225.910156 L 420.769531 230.671875 C 413.730469 229.695312 409.296875 228.585938 403.355469 224.570312 L 399.335938 221.144531 Z M 273.121094 716.476562 C 277.738281 717.816406 277.738281 717.816406 282.648438 721.238281 C 284.433594 729.871094 284.433594 729.871094 285.027344 737.90625 C 279.371094 735.972656 279.371094 735.972656 273.121094 733.144531 L 268.359375 726 L 275.503906 723.621094 Z M 315.988281 340.214844 L 320.75 342.597656 L 317.328125 345.574219 C 313.277344 349.53125 313.277344 349.53125 311.96875 354.949219 L 311.222656 359.265625 L 294.554688 361.648438 Z M 439.820312 240.195312 C 444.433594 242.28125 444.433594 242.28125 449.34375 244.960938 L 451.726562 249.722656 L 449.34375 252.105469 L 446.964844 256.867188 L 437.4375 254.484375 Z M 420.769531 499.769531 L 420.769531 504.53125 L 427.910156 502.148438 L 427.910156 506.914062 L 432.675781 511.675781 L 418.386719 514.058594 L 418.386719 509.292969 L 406.480469 506.914062 C 411.496094 501.898438 413.667969 499.769531 420.769531 499.769531 " fill-opacity="1" fill-rule="nonzero"/><path fill="#7455de" d="M 370.757812 478.335938 L 377.902344 483.097656 C 376.414062 487.265625 376.414062 487.265625 373.140625 492.625 C 365.699219 497.980469 365.699219 497.980469 358.851562 502.148438 Z M 370.757812 478.335938 " fill-opacity="1" fill-rule="nonzero"/><path fill="#322370" d="M 289.792969 361.648438 L 294.554688 364.027344 L 293.214844 368.347656 C 291.644531 373.945312 291.644531 373.945312 294.554688 380.699219 L 282.648438 378.316406 L 280.265625 371.171875 Z M 387.429688 521.199219 L 404.097656 523.582031 L 392.191406 535.488281 Z M 404.097656 509.292969 L 413.625 509.292969 L 413.625 514.058594 L 418.386719 516.4375 L 404.097656 523.582031 L 401.714844 518.820312 L 406.480469 518.820312 L 406.480469 514.058594 L 401.714844 511.675781 Z M 265.976562 425.945312 L 273.121094 433.089844 L 282.648438 425.945312 C 279.566406 432.8125 276.3125 437.546875 270.738281 442.613281 L 263.597656 440.234375 Z M 275.503906 373.554688 L 280.265625 375.9375 L 273.121094 385.460938 L 275.503906 390.222656 L 261.214844 394.988281 L 261.214844 390.222656 L 265.976562 390.222656 L 266.722656 385.910156 C 268.359375 380.699219 268.359375 380.699219 272.082031 376.53125 Z M 275.503906 373.554688 " fill-opacity="1" fill-rule="nonzero"/><path fill="#7455de" d="M 475.539062 359.265625 L 480.300781 361.648438 C 481.289062 366.566406 481.289062 366.566406 481.789062 372.515625 L 482.332031 378.472656 L 482.683594 383.082031 L 475.539062 383.082031 L 473.160156 373.554688 L 477.921875 373.554688 Z M 475.539062 359.265625 " fill-opacity="1" fill-rule="nonzero"/><path fill="#322370" d="M 494.589844 304.496094 L 504.117188 316.402344 L 501.734375 321.164062 L 496.972656 318.78125 C 493.003906 318.683594 489.035156 318.683594 485.066406 318.78125 L 485.066406 314.019531 L 492.210938 311.636719 Z M 346.945312 216.382812 L 356.46875 216.382812 L 356.46875 221.144531 L 351.707031 221.144531 L 354.089844 226.207031 C 356.683594 233.671875 356.835938 239.492188 356.46875 247.339844 C 352.71875 240.46875 350.605469 234.164062 349.027344 226.503906 L 347.820312 220.734375 Z M 423.148438 656.941406 L 444.582031 661.703125 L 444.582031 664.085938 L 432.675781 664.085938 L 432.675781 671.230469 L 427.910156 668.847656 C 426.1875 664.933594 424.601562 660.964844 423.148438 656.941406 M 299.316406 747.433594 L 320.75 752.195312 L 320.75 756.957031 L 325.511719 759.339844 C 315.683594 757.894531 308.050781 754.488281 299.316406 749.816406 Z M 399.335938 687.898438 C 407.371094 688.644531 407.371094 688.644531 416.003906 690.28125 L 420.769531 697.425781 C 404.695312 695.339844 404.695312 695.339844 399.335938 692.660156 Z M 475.539062 511.675781 C 482.238281 511.378906 482.238281 511.378906 489.828125 511.675781 L 496.972656 516.4375 L 496.972656 521.199219 C 489.476562 519.535156 482.621094 517.007812 475.539062 514.058594 Z M 516.023438 633.125 L 520.785156 635.507812 L 511.261719 647.414062 L 501.734375 645.035156 Z M 558.886719 575.972656 L 563.652344 578.355469 C 560.527344 584.160156 560.527344 584.160156 556.507812 590.261719 L 549.363281 592.644531 C 551.921875 585.699219 553.597656 581.265625 558.886719 575.972656 M 516.023438 499.769531 L 520.785156 499.769531 L 523.167969 506.914062 C 520.9375 514.503906 520.9375 514.503906 518.40625 521.199219 L 513.640625 518.820312 Z M 318.367188 342.597656 C 324.769531 342.152344 324.769531 342.152344 330.273438 342.597656 L 330.273438 349.742188 L 320.75 344.976562 L 320.75 352.121094 L 311.222656 349.742188 C 314.054688 346.167969 314.054688 346.167969 318.367188 342.597656 M 539.835938 699.804688 L 546.980469 699.804688 L 546.980469 706.949219 C 542.21875 710.96875 542.21875 710.96875 537.457031 714.09375 C 537.355469 710.125 537.355469 706.15625 537.457031 702.1875 Z M 385.046875 623.601562 L 392.191406 625.980469 C 395.019531 630.894531 395.019531 630.894531 396.953125 635.507812 C 391.148438 634.613281 391.148438 634.613281 385.046875 633.125 L 382.664062 628.363281 Z M 423.148438 225.910156 C 429.316406 228.460938 432.542969 230.507812 436.84375 235.730469 L 439.820312 240.195312 C 434.164062 239.75 434.164062 239.75 427.910156 237.816406 C 424.789062 231.714844 424.789062 231.714844 423.148438 225.910156 M 458.871094 747.433594 L 461.25 752.195312 L 468.394531 754.578125 L 470.777344 761.722656 L 458.871094 759.339844 Z M 544.601562 687.898438 L 556.507812 690.28125 L 551.746094 699.804688 L 549.363281 695.042969 L 544.601562 695.042969 Z M 249.308594 399.75 L 254.070312 399.75 L 254.070312 406.894531 L 239.78125 414.039062 C 242.523438 408.160156 244.660156 404.398438 249.308594 399.75 M 406.480469 645.035156 C 413.421875 647.589844 417.859375 649.265625 423.148438 654.558594 L 411.242188 656.941406 Z M 406.480469 645.035156 " fill-opacity="1" fill-rule="nonzero"/><path fill="#322370" d="M 520.785156 633.125 L 525.550781 635.507812 L 523.167969 647.414062 L 516.023438 645.035156 C 516.746094 641.84375 517.542969 638.667969 518.40625 635.507812 Z M 470.777344 749.816406 L 480.300781 754.578125 C 475.988281 757.109375 475.988281 757.109375 470.777344 759.339844 L 463.632812 756.957031 Z M 282.648438 733.144531 L 296.933594 733.144531 L 296.933594 742.671875 C 292.910156 741.21875 288.941406 739.632812 285.027344 737.90625 Z M 201.679688 483.097656 L 206.441406 485.480469 L 206.441406 495.003906 L 201.679688 495.003906 L 199.296875 499.769531 Z M 225.492188 435.472656 L 227.875 440.234375 L 232.636719 440.234375 L 230.257812 447.378906 L 220.730469 447.378906 Z M 504.117188 321.164062 L 506.496094 328.308594 L 504.117188 333.070312 L 499.355469 333.070312 L 496.972656 323.546875 Z M 411.242188 221.144531 L 423.148438 223.527344 L 420.769531 230.671875 L 413.625 230.671875 Z M 527.929688 711.710938 L 537.457031 716.476562 L 527.929688 723.621094 Z M 492.210938 740.289062 L 506.496094 740.289062 C 503.222656 743.859375 503.222656 743.859375 499.355469 747.433594 L 494.589844 747.433594 Z M 496.972656 730.761719 L 508.878906 733.144531 L 506.496094 740.289062 C 501.734375 737.90625 501.734375 737.90625 496.972656 730.761719 M 401.714844 645.035156 L 408.859375 647.414062 L 406.480469 654.558594 L 399.335938 654.558594 Z M 532.691406 621.21875 L 535.074219 628.363281 L 532.691406 633.125 L 525.550781 630.746094 Z M 511.261719 726 L 520.785156 728.382812 L 518.40625 733.144531 L 511.261719 733.144531 Z M 511.261719 726 " fill-opacity="1" fill-rule="nonzero"/><path fill="#7455de" d="M 477.921875 699.804688 L 485.066406 699.804688 L 487.445312 706.949219 L 482.683594 709.332031 L 477.921875 704.566406 Z M 477.921875 699.804688 " fill-opacity="1" fill-rule="nonzero"/><path fill="#322370" d="M 392.191406 521.199219 L 404.097656 523.582031 L 396.953125 530.726562 Z M 458.871094 261.628906 L 468.394531 268.773438 L 466.015625 273.535156 L 458.871094 268.773438 Z M 399.335938 211.621094 L 411.242188 216.382812 L 401.714844 218.765625 Z M 539.835938 604.550781 L 544.601562 611.695312 L 535.074219 616.457031 Z M 546.980469 592.644531 L 551.746094 599.785156 L 542.21875 604.550781 Z M 546.980469 592.644531 " fill-opacity="1" fill-rule="nonzero"/><path fill="#7455de" d="M 292.171875 418.800781 L 299.316406 421.183594 L 296.933594 425.945312 L 289.792969 425.945312 Z M 292.171875 418.800781 " fill-opacity="1" fill-rule="nonzero"/><path fill="#322370" d="M 496.972656 314.019531 L 504.117188 323.546875 L 492.210938 321.164062 L 496.972656 318.78125 Z M 244.542969 702.1875 L 254.070312 704.566406 L 249.308594 709.332031 Z M 320.75 335.453125 L 327.894531 337.832031 L 325.511719 342.597656 L 320.75 342.597656 Z M 320.75 335.453125 " fill-opacity="1" fill-rule="nonzero"/></svg>